<svg xmlns="http://www.w3.org/2000/svg" viewBox="0 0 330 80" role="img" aria-label="Beetalist">
  <defs>
    <linearGradient id="btBody" x1="0%" y1="0%" x2="100%" y2="100%"><stop offset="0%" stop-color="#FFD60A"/><stop offset="100%" stop-color="#FFA500"/></linearGradient>
    <linearGradient id="btWing" x1="0%" y1="0%" x2="100%" y2="100%"><stop offset="0%" stop-color="#FFD60A" stop-opacity="0.4"/><stop offset="100%" stop-color="#FFD60A" stop-opacity="0.15"/></linearGradient>
  </defs>
  <!-- Beeta mascot (official on-light variant), scaled -->
  <g transform="translate(2,4) scale(0.36)">
    <ellipse cx="42" cy="72" rx="32" ry="18" fill="url(#btWing)" stroke="rgba(255,214,10,0.35)" stroke-width="0.8" transform="rotate(-12,42,72)"/>
    <ellipse cx="158" cy="72" rx="32" ry="18" fill="url(#btWing)" stroke="rgba(255,214,10,0.35)" stroke-width="0.8" transform="rotate(12,158,72)"/>
    <polyline points="86,42 80,30 87,24 78,14" stroke="#E6C009" stroke-width="2.5" fill="none" stroke-linecap="round" stroke-linejoin="round"/>
    <polyline points="114,42 120,30 113,24 122,14" stroke="#E6C009" stroke-width="2.5" fill="none" stroke-linecap="round" stroke-linejoin="round"/>
    <circle cx="78" cy="12" r="5.5" fill="#E6C009"/><circle cx="122" cy="12" r="5.5" fill="#E6C009"/>
    <rect x="58" y="38" rx="32" ry="32" width="84" height="72" fill="#222222" stroke="#333333" stroke-width="1.5"/>
    <rect x="66" y="54" rx="14" ry="14" width="68" height="30" fill="#111111" stroke="#E6C009" stroke-width="0.8" opacity="0.9"/>
    <rect x="70" y="57" rx="5" ry="5" width="24" height="24" fill="#111111" stroke="#444444" stroke-width="0.5"/>
    <rect x="73" y="60" rx="4" ry="4" width="18" height="18" fill="#E6C009" opacity="0.95"/>
    <rect x="76" y="63" width="5" height="5" rx="1" fill="#FFFFFF" opacity="0.3"/>
    <rect x="110" y="62" rx="3.5" ry="3.5" width="16" height="16" fill="#111111" stroke="#444444" stroke-width="0.5"/>
    <rect x="113" y="65" rx="2.5" ry="2.5" width="10" height="10" fill="#E6C009" opacity="0.95"/>
    <rect x="114.5" y="66.5" width="3" height="3" rx="1" fill="#FFFFFF" opacity="0.3"/>
    <circle cx="64" cy="92" r="7" fill="#FF8C00" opacity="0.15"/><circle cx="136" cy="92" r="7" fill="#FF8C00" opacity="0.15"/>
    <path d="M88,98 Q100,108 112,98" stroke="#E6C009" stroke-width="1.8" fill="none" stroke-linecap="round" opacity="0.5"/>
    <ellipse cx="100" cy="132" rx="32" ry="27" fill="url(#btBody)"/>
    <rect x="68" y="126" width="64" height="9" fill="#111111" opacity="0.5" rx="3"/>
    <rect x="68" y="141" width="64" height="9" fill="#111111" opacity="0.5" rx="3"/>
    <circle cx="100" cy="118" r="4" fill="#111111" opacity="0.3"/>
    <polygon points="95,157 100,170 105,157" fill="#E6C009" opacity="0.6"/>
    <circle cx="82" cy="162" r="5" fill="#444444"/><circle cx="118" cy="162" r="5" fill="#444444"/>
  </g>
  <!-- wordmark: light-version lockup — gold "beeta" + gray "list.ai", soft script -->
  <text x="82" y="52" font-family="Apple Chancery, Snell Roundhand, Georgia, serif" font-style="italic" font-size="36" font-weight="700"><tspan fill="#E0A500">beeta</tspan><tspan fill="#8A8A8F">list.ai</tspan></text>
</svg>
