<svg viewBox="45 72 513 152" fill="none" xmlns="http://www.w3.org/2000/svg" role="img" aria-label="Chaiz">
<g clip-path="url(#clip0_202_49)">
<path d="M103.325 220.367C93.1152 220.367 83.9509 218.23 75.8322 213.957C67.7135 209.683 61.3785 203.761 56.8271 196.191C52.2757 188.499 50 179.83 50 170.184C50 160.538 52.2757 151.93 56.8271 144.36C61.3785 136.79 67.652 130.868 75.6477 126.595C83.7664 122.321 92.9922 120.185 103.325 120.185C113.043 120.185 121.531 122.138 128.788 126.045C136.169 129.952 141.704 135.569 145.395 142.895L127.681 153.151C124.852 148.634 121.285 145.276 116.979 143.078C112.797 140.758 108.184 139.598 103.141 139.598C94.5298 139.598 87.3952 142.407 81.7367 148.023C76.0782 153.518 73.249 160.905 73.249 170.184C73.249 179.464 76.0167 186.912 81.5522 192.528C87.2107 198.023 94.4068 200.77 103.141 200.77C108.184 200.77 112.797 199.671 116.979 197.473C121.285 195.153 124.852 191.735 127.681 187.217L145.395 197.473C141.581 204.799 135.984 210.477 128.604 214.506C121.346 218.413 112.92 220.367 103.325 220.367Z" fill="black"/>
<path d="M225.322 120.185C237.746 120.185 247.71 123.786 255.213 130.99C262.717 138.194 266.469 148.878 266.469 163.041V219.085H243.404V165.972C243.404 157.425 241.374 151.015 237.315 146.741C233.256 142.346 227.474 140.148 219.971 140.148C211.483 140.148 204.779 142.712 199.858 147.84C194.938 152.846 192.478 160.111 192.478 169.635V219.085H169.413V83.1885H192.478V132.639C196.291 128.609 200.966 125.557 206.501 123.481C212.159 121.283 218.433 120.185 225.322 120.185Z" fill="black"/>
<path d="M338.35 120.185C352.866 120.185 363.937 123.664 371.563 130.624C379.313 137.462 383.188 147.84 383.188 161.759V219.085H361.415V207.18C358.586 211.454 354.526 214.75 349.237 217.07C344.07 219.268 337.797 220.367 330.416 220.367C323.036 220.367 316.578 219.146 311.042 216.704C305.507 214.14 301.201 210.66 298.126 206.265C295.174 201.747 293.698 196.68 293.698 191.063C293.698 182.272 296.957 175.251 303.477 170.001C310.12 164.629 320.514 161.942 334.66 161.942H360.123V160.477C360.123 153.64 358.032 148.389 353.85 144.727C349.79 141.064 343.701 139.232 335.583 139.232C330.047 139.232 324.573 140.087 319.161 141.796C313.871 143.506 309.381 145.886 305.691 148.939L296.65 132.272C301.816 128.365 308.028 125.374 315.286 123.298C322.544 121.222 330.232 120.185 338.35 120.185ZM335.214 203.7C340.995 203.7 346.1 202.418 350.528 199.854C355.08 197.168 358.278 193.383 360.123 188.499V177.144H336.321C323.036 177.144 316.393 181.478 316.393 190.147C316.393 194.299 318.054 197.595 321.375 200.037C324.696 202.479 329.309 203.7 335.214 203.7Z" fill="black"/>
<path d="M417.77 121.283H440.834V219.085H417.77V121.283Z" fill="black"/>
<path d="M553.031 200.77V219.085H467.97V204.616L522.033 139.598H469.077V121.283H551.555V135.752L497.308 200.77H553.031Z" fill="black"/>
<path d="M369.515 79.6294L491.329 96.6223L489.189 111.736L367.375 94.7433L369.515 79.6294Z" fill="#2DF38A"/>
</g>
<defs>
<clipPath id="clip0_202_49">
<rect width="500" height="200" fill="white" transform="translate(50 50)"/>
</clipPath>
</defs>
</svg>
